<svg width="94" height="21" viewBox="0 0 94 21" fill="none" xmlns="http://www.w3.org/2000/svg">
<path d="M93.8419 9.5225V7.87498H91.796V5.3137L91.7272 5.33491L89.8055 5.92287L89.7676 5.93438V7.87507H86.7346V6.79394C86.7346 6.29053 86.8471 5.90529 87.069 5.64837C87.2893 5.39454 87.6044 5.26549 88.0063 5.26549C88.2952 5.26549 88.5943 5.33355 88.8954 5.46776L88.9709 5.50147V3.76641L88.9353 3.75336C88.6545 3.6524 88.2725 3.60156 87.799 3.60156C87.2023 3.60156 86.6601 3.73143 86.1872 3.98879C85.7141 4.24653 85.3419 4.61446 85.0811 5.08225C84.8213 5.5495 84.6895 6.08916 84.6895 6.68637V7.87498H83.2649V9.5225H84.6895V16.4632H86.7346V9.5225H89.7676V13.9332C89.7676 15.7498 90.6245 16.6703 92.3143 16.6703C92.592 16.6703 92.8842 16.6378 93.1827 16.5741C93.4864 16.5086 93.6933 16.4433 93.8151 16.3735L93.842 16.3576V14.6948L93.7588 14.7498C93.6478 14.8238 93.5096 14.8842 93.3476 14.9292C93.1848 14.9749 93.0489 14.9979 92.9436 14.9979C92.5478 14.9979 92.2549 14.8912 92.0732 14.6807C91.8894 14.4683 91.7961 14.0968 91.7961 13.5772V9.5225H93.8419ZM78.6978 14.9981C77.9555 14.9981 77.3703 14.752 76.9579 14.2672C76.5429 13.7799 76.3327 13.0852 76.3327 12.2025C76.3327 11.2918 76.5429 10.5791 76.9581 10.0832C77.3708 9.59056 77.9504 9.34053 78.6812 9.34053C79.3903 9.34053 79.9548 9.57933 80.3591 10.0507C80.7655 10.5244 80.9718 11.2315 80.9718 12.1527C80.9718 13.0853 80.7778 13.8017 80.3954 14.2809C80.0156 14.7565 79.4445 14.9981 78.6978 14.9981ZM78.7887 7.66809C77.3726 7.66809 76.2478 8.08305 75.4457 8.90147C74.6443 9.71997 74.2379 10.8527 74.2379 12.2684C74.2379 13.613 74.6346 14.6946 75.417 15.4826C76.1995 16.2708 77.2643 16.6701 78.5817 16.6701C79.9544 16.6701 81.0569 16.2494 81.8585 15.4196C82.6601 14.5908 83.0661 13.4688 83.0661 12.0861C83.0661 10.7204 82.6851 9.6308 81.9332 8.84809C81.1809 8.06502 80.1228 7.66809 78.7887 7.66809ZM70.9406 7.66809C69.9773 7.66809 69.1804 7.91449 68.5717 8.40032C67.9593 8.88905 67.6486 9.53003 67.6486 10.3057C67.6486 10.7088 67.7157 11.067 67.8476 11.3708C67.9804 11.6755 68.1858 11.9439 68.4588 12.1691C68.7297 12.3924 69.1478 12.6264 69.7019 12.8645C70.1677 13.0562 70.515 13.2183 70.7357 13.3461C70.9514 13.4713 71.1044 13.5972 71.1909 13.7198C71.2749 13.8398 71.3175 14.004 71.3175 14.2066C71.3175 14.7836 70.8854 15.0644 69.9963 15.0644C69.6665 15.0644 69.2904 14.9955 68.8783 14.8597C68.4692 14.726 68.083 14.5302 67.7334 14.2792L67.6484 14.2183V16.1873L67.6796 16.2018C67.969 16.3354 68.3338 16.448 68.7638 16.5366C69.193 16.6254 69.583 16.6705 69.9217 16.6705C70.9671 16.6705 71.8089 16.4229 72.4231 15.9342C73.0412 15.4421 73.3545 14.786 73.3545 13.9835C73.3545 13.4046 73.1859 12.9082 72.8535 12.5078C72.5233 12.1107 71.9503 11.7461 71.1511 11.4239C70.5144 11.1683 70.1065 10.9562 69.9382 10.7933C69.776 10.636 69.6936 10.4135 69.6936 10.1318C69.6936 9.88201 69.7953 9.68191 70.004 9.51988C70.2143 9.35703 70.5071 9.2742 70.8744 9.2742C71.2151 9.2742 71.5637 9.32803 71.9104 9.43351C72.2569 9.539 72.5612 9.68028 72.8152 9.8531L72.8988 9.91019V8.04245L72.8667 8.02868C72.6324 7.92817 72.3233 7.84217 71.948 7.77239C71.5743 7.70307 71.2354 7.66809 70.9406 7.66809ZM62.3172 14.9981C61.5751 14.9981 60.9896 14.752 60.5773 14.2672C60.1623 13.7799 59.9524 13.0853 59.9524 12.2025C59.9524 11.2918 60.1625 10.5791 60.5778 10.0832C60.9901 9.59056 61.5696 9.34053 62.3008 9.34053C63.0096 9.34053 63.5741 9.57933 63.9786 10.0507C64.385 10.5244 64.5912 11.2315 64.5912 12.1527C64.5912 13.0853 64.3972 13.8017 64.0147 14.2809C63.6349 14.7565 63.0641 14.9981 62.3172 14.9981ZM62.4084 7.66809C60.9918 7.66809 59.8669 8.08305 59.0654 8.90147C58.2639 9.71997 57.8573 10.8527 57.8573 12.2684C57.8573 13.6136 58.2542 14.6946 59.0366 15.4826C59.8191 16.2708 60.8838 16.6701 62.2012 16.6701C63.5738 16.6701 64.6765 16.2494 65.4781 15.4196C66.2795 14.5908 66.6858 13.4688 66.6858 12.0861C66.6858 10.7204 66.3046 9.6308 65.5525 8.84809C64.8001 8.06502 63.7421 7.66809 62.4084 7.66809ZM54.7529 9.36228V7.87498H52.7327V16.463H54.7529V12.0699C54.7529 11.3229 54.9223 10.7092 55.2565 10.2457C55.5864 9.78767 56.0261 9.55558 56.563 9.55558C56.745 9.55558 56.9492 9.58558 57.1704 9.64494C57.3894 9.70393 57.548 9.768 57.6415 9.83543L57.7264 9.89696V7.8603L57.6937 7.84625C57.5056 7.76632 57.2394 7.72599 56.9026 7.72599C56.395 7.72599 55.9407 7.88912 55.5515 8.21028C55.21 8.49257 54.9631 8.87962 54.7744 9.36228H54.7529ZM49.115 7.66809C48.1881 7.66809 47.3615 7.86682 46.6583 8.25859C45.9537 8.65126 45.4088 9.21185 45.0381 9.92469C44.669 10.6358 44.4816 11.4665 44.4816 12.3928C44.4816 13.2042 44.6633 13.9489 45.0224 14.6052C45.3817 15.2626 45.8903 15.7768 46.5341 16.1335C47.177 16.4898 47.92 16.6704 48.7427 16.6704C49.7027 16.6704 50.5224 16.4785 51.1796 16.0999L51.2062 16.0847V14.2339L51.1213 14.2959C50.8236 14.5127 50.4909 14.6858 50.1329 14.8105C49.7759 14.9351 49.4503 14.9981 49.1649 14.9981C48.3722 14.9981 47.7358 14.7501 47.2739 14.2611C46.811 13.7715 46.5763 13.0839 46.5763 12.2187C46.5763 11.3481 46.8211 10.6429 47.3035 10.1225C47.7844 9.6037 48.422 9.34053 49.1982 9.34053C49.8622 9.34053 50.5093 9.56537 51.1214 10.0094L51.2062 10.071V8.12084L51.1788 8.10543C50.9484 7.97648 50.6342 7.86999 50.2442 7.78925C49.8558 7.70869 49.4759 7.66809 49.115 7.66809ZM43.0902 7.87507H41.0701V16.463H43.0902V7.87507ZM42.1008 4.21653C41.7683 4.21653 41.4783 4.32972 41.2401 4.55401C41.0008 4.77894 40.8795 5.06213 40.8795 5.39635C40.8795 5.72531 40.9994 6.00334 41.2364 6.22229C41.4718 6.4406 41.7627 6.55125 42.1009 6.55125C42.439 6.55125 42.731 6.4406 42.9693 6.22265C43.209 6.00334 43.3307 5.7254 43.3307 5.39635C43.3307 5.07382 43.2123 4.79353 42.9791 4.56307C42.7461 4.33307 42.4505 4.21653 42.1008 4.21653ZM37.0604 7.24143V16.463H39.122V4.47943H36.2686L32.6417 13.3805L29.122 4.47943H26.1523V16.463H28.0898V7.24053H28.1563L31.873 16.463H33.3351L36.9938 7.24143H37.0604Z" fill="black"/>
<path d="M9.66361 9.97903H0.160156V0.475586H9.66361V9.97903Z" fill="black"/>
<path d="M20.1556 9.97903H10.6523V0.475586H20.1556V9.97903Z" fill="black"/>
<path d="M9.66334 20.476H0.160156V10.9727H9.66334V20.476Z" fill="black"/>
<path d="M20.1556 20.476H10.6523V10.9727H20.1556V20.476Z" fill="black"/>
</svg>
