<svg width="54" height="23" viewBox="0 0 54 23" fill="none" xmlns="http://www.w3.org/2000/svg">
<path fill-rule="evenodd" clip-rule="evenodd" d="M53.4952 11.6512C53.4952 7.89145 51.67 4.9248 48.1814 4.9248C44.6782 4.9248 42.5586 7.89145 42.5586 11.6218C42.5586 16.0424 45.0609 18.2747 48.6525 18.2747C50.4041 18.2747 51.7288 17.8782 52.7298 17.3201V14.3828C51.7288 14.8821 50.5807 15.1906 49.1235 15.1906C47.6957 15.1906 46.4298 14.6912 46.2679 12.9582H53.4657C53.4657 12.7673 53.4952 12.0036 53.4952 11.6512ZM46.2237 10.2559C46.2237 8.59639 47.2394 7.90613 48.1667 7.90613C49.0646 7.90613 50.0214 8.59639 50.0214 10.2559H46.2237Z" fill="black"/>
<path fill-rule="evenodd" clip-rule="evenodd" d="M36.8772 4.9248C35.4346 4.9248 34.5073 5.60038 33.9921 6.07034L33.8008 5.15979H30.5625V22.2841L34.2424 21.5057L34.2571 17.3495C34.787 17.7313 35.5671 18.2747 36.8624 18.2747C39.4972 18.2747 41.8965 16.1599 41.8965 11.5043C41.8818 7.24525 39.4531 4.9248 36.8772 4.9248ZM35.994 15.0437C35.1255 15.0437 34.6104 14.7353 34.2571 14.3534L34.2424 8.9048C34.6251 8.4789 35.155 8.18517 35.994 8.18517C37.3335 8.18517 38.2608 9.68318 38.2608 11.6071C38.2608 13.5751 37.3482 15.0437 35.994 15.0437Z" fill="black"/>
<path fill-rule="evenodd" clip-rule="evenodd" d="M25.4961 4.05857L29.1907 3.26551V0.28418L25.4961 1.06256V4.05857Z" fill="black"/>
<path d="M29.1907 5.1748H25.4961V18.0254H29.1907V5.1748Z" fill="black"/>
<path fill-rule="evenodd" clip-rule="evenodd" d="M21.536 6.26203L21.3005 5.17524H18.1211V18.0258H21.801V9.31679C22.6694 8.18594 24.1414 8.39155 24.5977 8.5531V5.17524C24.1266 4.99901 22.4045 4.67591 21.536 6.26203Z" fill="black"/>
<path fill-rule="evenodd" clip-rule="evenodd" d="M14.1766 1.98828L10.585 2.75197L10.5703 14.5157C10.5703 16.6893 12.2042 18.2901 14.3827 18.2901C15.5897 18.2901 16.4728 18.0698 16.9586 17.8055V14.8241C16.4875 15.0151 14.1619 15.6906 14.1619 13.5171V8.30341H16.9586V5.17522H14.1619L14.1766 1.98828Z" fill="black"/>
<path fill-rule="evenodd" clip-rule="evenodd" d="M4.22794 8.9048C4.22794 8.33204 4.69896 8.11174 5.47909 8.11174C6.59777 8.11174 8.01084 8.44953 9.12953 9.05167V5.60038C7.90781 5.11573 6.70081 4.9248 5.47909 4.9248C2.49104 4.9248 0.503906 6.48156 0.503906 9.08104C0.503906 13.1345 6.09731 12.4883 6.09731 14.2359C6.09731 14.9115 5.50853 15.1318 4.68424 15.1318C3.46252 15.1318 1.90226 14.6325 0.66582 13.9569V17.4523C2.03473 18.0397 3.41837 18.2894 4.68424 18.2894C7.74589 18.2894 9.85078 16.7767 9.85078 14.1478C9.83606 9.7713 4.22794 10.5497 4.22794 8.9048Z" fill="black"/>
</svg>
