<svg width="74" height="23" viewBox="0 0 74 23" fill="none" xmlns="http://www.w3.org/2000/svg">
<g clip-path="url(#clip0_1441_9265)">
<path fill-rule="evenodd" clip-rule="evenodd" d="M72.3705 21.3875C72.1326 21.3866 71.9048 21.2917 71.7366 21.1235C71.5684 20.9553 71.4735 20.7275 71.4726 20.4896C71.4829 20.2584 71.582 20.0402 71.7493 19.8802C71.9165 19.7203 72.139 19.6311 72.3705 19.6311C72.6019 19.6311 72.8244 19.7203 72.9916 19.8802C73.1589 20.0402 73.258 20.2584 73.2683 20.4896C73.2683 20.9815 72.8668 21.3875 72.3705 21.3875ZM72.3705 19.4281C71.782 19.4281 71.3044 19.9003 71.3044 20.4896C71.3044 21.0799 71.782 21.5414 72.3705 21.5414C72.9607 21.5414 73.4374 21.079 73.4374 20.4896C73.4374 19.9003 72.9598 19.4281 72.3705 19.4281ZM72.1693 20.41V20.0693H72.3661C72.4786 20.0693 72.6047 20.1031 72.6047 20.2329C72.6047 20.3779 72.4644 20.41 72.3427 20.41H72.1693ZM72.8195 20.2366C72.8195 19.9808 72.6005 19.8861 72.3759 19.8861H71.9556V21.0827H72.1692V20.5828H72.324L72.6049 21.0836H72.8669L72.543 20.5595C72.7131 20.523 72.8195 20.409 72.8195 20.2366ZM66.1059 5.06441C66.3958 5.07028 66.684 5.01822 66.9536 4.91133C67.2232 4.80444 67.4687 4.64484 67.6758 4.44188C67.883 4.23892 68.0476 3.9967 68.1599 3.72935C68.2723 3.462 68.3302 3.17494 68.3303 2.88494C68.3303 2.59493 68.2725 2.30781 68.1603 2.04042C68.048 1.77303 67.8835 1.53072 67.6765 1.32768C67.4694 1.12464 67.2239 0.96497 66.9544 0.85797C66.6849 0.75097 66.3967 0.698785 66.1067 0.704529C65.5361 0.71595 64.9928 0.95064 64.5933 1.35821C64.1938 1.76579 63.97 2.31376 63.97 2.88447C63.97 3.45518 64.1938 4.00316 64.5933 4.41073C64.9928 4.8183 65.5353 5.05299 66.1059 5.06441ZM60.257 6.94691V10.145H64.3011V21.3886H67.9097V10.145H71.9547V6.94691H60.257ZM28.7742 5.06441C29.0605 5.06449 29.344 5.00817 29.6086 4.89865C29.8731 4.78913 30.1135 4.62853 30.316 4.4261C30.5185 4.22367 30.6791 3.98335 30.7887 3.71883C30.8982 3.45431 30.9546 3.17079 30.9546 2.88447C30.9546 2.59815 30.8982 2.31463 30.7887 2.05011C30.6791 1.7856 30.5185 1.54528 30.316 1.34284C30.1135 1.14041 29.8731 0.979817 29.6086 0.870297C29.344 0.760777 29.0605 0.704458 28.7742 0.704529C28.2036 0.71595 27.6602 0.95064 27.2607 1.35821C26.8612 1.76579 26.6375 2.31376 26.6375 2.88447C26.6375 3.45518 26.8612 4.00316 27.2607 4.41073C27.6602 4.8183 28.2036 5.05299 28.7742 5.06441ZM22.9244 10.1442H26.9694V21.3886H30.5771V10.145H34.6231V6.94691H22.9253L22.9244 10.1442ZM54.1192 21.3886H57.7287V6.95589H54.1201L54.1192 21.3886ZM46.818 14.8939C46.818 16.8185 45.7341 18.8021 43.45 18.8021C41.1346 18.8021 40.7438 16.6683 40.7438 14.9538V6.95589H37.1352V15.9761C37.1352 18.9238 38.6985 21.8098 42.4582 21.8098C44.5921 21.8098 46.3064 20.5166 46.9379 19.0731H46.9977V21.3886H50.4256V6.95589H46.8179L46.818 14.8939ZM15.7645 6.53466C13.6298 6.53466 11.9163 7.82787 11.2848 9.27132H11.224V6.95589H7.79698V21.3886H11.4047V13.4505C11.4047 11.5259 12.4877 9.54138 14.7727 9.54138C17.0872 9.54138 17.4789 11.6762 17.4789 13.3906V21.3886H21.0866V12.3666C21.0866 9.42068 19.5242 6.53466 15.7645 6.53466ZM0.492188 21.3886H4.09988V6.95589H0.492188V21.3886Z" fill="black"/>
</g>
<defs>
<clipPath id="clip0_1441_9265">
<rect width="73.8395" height="22" fill="white" transform="translate(0.046875 0.257812)"/>
</clipPath>
</defs>
</svg>
